<svg xmlns="http://www.w3.org/2000/svg" xmlns:xlink="http://www.w3.org/1999/xlink" viewBox="0 0 850 850" width="850" height="850" preserveAspectRatio="xMidYMid meet" style="width: 100%; height: 100%; transform: translate3d(0px, 0px, 0px); content-visibility: visible;" id="Opener Loading"><defs><clipPath id="__lottie_element_25325"><rect width="850" height="850" x="0" y="0"/></clipPath><clipPath id="__lottie_element_25327"><path d="M0,0 L850,0 L850,720 L0,720z"/></clipPath><clipPath id="__lottie_element_25331"><path d="M0,0 L550,0 L550,550 L0,550z"/></clipPath><clipPath id="__lottie_element_25347"><path d="M0,0 L850,0 L850,720 L0,720z"/></clipPath><clipPath id="__lottie_element_25405"><path d="M0,0 L550,0 L550,550 L0,550z"/></clipPath><clipPath id="__lottie_element_25427"><path d="M0,0 L550,0 L550,550 L0,550z"/></clipPath><clipPath id="__lottie_element_25431"><path d="M0,0 L550,0 L550,550 L0,550z"/></clipPath><clipPath id="__lottie_element_25435"><path d="M0,0 L550,0 L550,550 L0,550z"/></clipPath></defs><g clip-path="url(#__lottie_element_25325)"><g clip-path="url(#__lottie_element_25327)" transform="matrix(1.4333300590515137,0,0,1.4333300590515137,-190.165283203125,-78.99884033203125)" opacity="1" style="display: none;"><g transform="matrix(0,0,0,0,742.75,142.25)" opacity="1" style="display: block;"><g opacity="1" transform="matrix(0.732200026512146,0,0,0.732200026512146,-262,-149)"><path fill="rgb(43,130,72)" fill-opacity="1" d=" M0,-50 C27.594999313354492,-50 50,-27.594999313354492 50,0 C50,27.594999313354492 27.594999313354492,50 0,50 C-27.594999313354492,50 -50,27.594999313354492 -50,0 C-50,-27.594999313354492 -27.594999313354492,-50 0,-50z"/></g></g><g transform="matrix(-0.000007544538675574586,-0.0000023065967980073765,0.0000023065967980073765,-0.000007544538675574586,281.74835205078125,211.24826049804688)" opacity="1" style="display: block;"><g opacity="1" transform="matrix(1,0,0,1,-260.5559997558594,-148.61500549316406)"><path stroke-linecap="butt" stroke-linejoin="miter" fill-opacity="0" stroke-miterlimit="4" stroke="rgb(43,130,72)" stroke-opacity="1" stroke-width="8" d=" M0,-28.25550079345703 C15.594210624694824,-28.25550079345703 28.25550079345703,-15.594210624694824 28.25550079345703,0 C28.25550079345703,15.594210624694824 15.594210624694824,28.25550079345703 0,28.25550079345703 C-15.594210624694824,28.25550079345703 -28.25550079345703,15.594210624694824 -28.25550079345703,0 C-28.25550079345703,-15.594210624694824 -15.594210624694824,-28.25550079345703 0,-28.25550079345703z"/></g></g><g transform="matrix(0,0,0,0,271.74993896484375,512.2499389648438)" opacity="1" style="display: block;"><g opacity="1" transform="matrix(1,0,0,1,-261.5,-148.5)"><path stroke-linecap="butt" stroke-linejoin="miter" fill-opacity="0" stroke-miterlimit="4" stroke="rgb(43,130,72)" stroke-opacity="1" stroke-width="8" d=" M0,-24.5 C13.521550178527832,-24.5 24.5,-13.521550178527832 24.5,0 C24.5,13.521550178527832 13.521550178527832,24.5 0,24.5 C-13.521550178527832,24.5 -24.5,13.521550178527832 -24.5,0 C-24.5,-13.521550178527832 -13.521550178527832,-24.5 0,-24.5z"/></g></g><g transform="matrix(0,0,0,0,119.75,360)" opacity="1" style="display: block;"><g opacity="1" transform="matrix(1,0,0,1,-262,-151)"><path stroke-linecap="butt" stroke-linejoin="miter" fill-opacity="0" stroke-miterlimit="4" stroke="rgb(43,130,72)" stroke-opacity="1" stroke-width="8" d=" M0,-24 C13.245599746704102,-24 24,-13.245599746704102 24,0 C24,13.245599746704102 13.245599746704102,24 0,24 C-13.245599746704102,24 -24,13.245599746704102 -24,0 C-24,-13.245599746704102 -13.245599746704102,-24 0,-24z"/></g></g><g transform="matrix(0,0,0,0,811.75,385)" opacity="1" style="display: block;"><g opacity="1" transform="matrix(1,0,0,1,-261.5,-149.5)"><path stroke-linecap="butt" stroke-linejoin="miter" fill-opacity="0" stroke-miterlimit="4" stroke="rgb(43,130,72)" stroke-opacity="1" stroke-width="8" d=" M0,-25.5 C14.073450088500977,-25.5 25.5,-14.073450088500977 25.5,0 C25.5,14.073450088500977 14.073450088500977,25.5 0,25.5 C-14.073450088500977,25.5 -25.5,14.073450088500977 -25.5,0 C-25.5,-14.073450088500977 -14.073450088500977,-25.5 0,-25.5z"/></g></g><g transform="matrix(0.4168716073036194,-0.38873904943466187,0.38873904943466187,0.4168716073036194,475.875,344.8800048828125)" opacity="1" style="display: block;"><g opacity="1" transform="matrix(1,0,0,1,39.5,-7)"><path stroke-linecap="round" stroke-linejoin="miter" fill-opacity="0" stroke-miterlimit="4" stroke="rgb(43,130,72)" stroke-opacity="1" stroke-width="4" d="M0 0"/></g></g><g transform="matrix(-0.46691665053367615,0.32693856954574585,-0.32693856954574585,-0.46691665053367615,406.375,359)" opacity="1" style="display: block;"><g opacity="1" transform="matrix(1,0,0,1,39.5,-7)"><path stroke-linecap="round" stroke-linejoin="miter" fill-opacity="0" stroke-miterlimit="4" stroke="rgb(43,130,72)" stroke-opacity="1" stroke-width="4" d="M0 0"/></g></g></g><g clip-path="url(#__lottie_element_25347)" transform="matrix(-0.24057166278362274,1.0420303344726562,-1.0420303344726562,-0.24057166278362274,902.3739013671875,-3.257080078125)" opacity="1" style="display: block;"><g transform="matrix(0,0,0,0,742.75,142.25)" opacity="1" style="display: block;"><g opacity="1" transform="matrix(0.732200026512146,0,0,0.732200026512146,-262,-149)"><path fill="rgb(43,130,72)" fill-opacity="1" d=" M0,-50 C27.594999313354492,-50 50,-27.594999313354492 50,0 C50,27.594999313354492 27.594999313354492,50 0,50 C-27.594999313354492,50 -50,27.594999313354492 -50,0 C-50,-27.594999313354492 -27.594999313354492,-50 0,-50z"/></g></g><g transform="matrix(-0.000007828208254068159,-0.000002393323256910662,0.000002393323256910662,-0.000007828208254068159,281.748291015625,211.24819946289062)" opacity="1" style="display: block;"><g opacity="1" transform="matrix(1,0,0,1,-260.5559997558594,-148.61500549316406)"><path stroke-linecap="butt" stroke-linejoin="miter" fill-opacity="0" stroke-miterlimit="4" stroke="rgb(43,130,72)" stroke-opacity="1" stroke-width="8" d=" M0,-28.25550079345703 C15.594210624694824,-28.25550079345703 28.25550079345703,-15.594210624694824 28.25550079345703,0 C28.25550079345703,15.594210624694824 15.594210624694824,28.25550079345703 0,28.25550079345703 C-15.594210624694824,28.25550079345703 -28.25550079345703,15.594210624694824 -28.25550079345703,0 C-28.25550079345703,-15.594210624694824 -15.594210624694824,-28.25550079345703 0,-28.25550079345703z"/></g></g><g transform="matrix(0,0,0,0,271.7499084472656,512.2498779296875)" opacity="1" style="display: block;"><g opacity="1" transform="matrix(1,0,0,1,-261.5,-148.5)"><path stroke-linecap="butt" stroke-linejoin="miter" fill-opacity="0" stroke-miterlimit="4" stroke="rgb(43,130,72)" stroke-opacity="1" stroke-width="8" d=" M0,-24.5 C13.521550178527832,-24.5 24.5,-13.521550178527832 24.5,0 C24.5,13.521550178527832 13.521550178527832,24.5 0,24.5 C-13.521550178527832,24.5 -24.5,13.521550178527832 -24.5,0 C-24.5,-13.521550178527832 -13.521550178527832,-24.5 0,-24.5z"/></g></g><g transform="matrix(0,0,0,0,119.75,360)" opacity="1" style="display: block;"><g opacity="1" transform="matrix(1,0,0,1,-262,-151)"><path stroke-linecap="butt" stroke-linejoin="miter" fill-opacity="0" stroke-miterlimit="4" stroke="rgb(43,130,72)" stroke-opacity="1" stroke-width="8" d=" M0,-24 C13.245599746704102,-24 24,-13.245599746704102 24,0 C24,13.245599746704102 13.245599746704102,24 0,24 C-13.245599746704102,24 -24,13.245599746704102 -24,0 C-24,-13.245599746704102 -13.245599746704102,-24 0,-24z"/></g></g><g transform="matrix(0,0,0,0,811.75,385)" opacity="1" style="display: block;"><g opacity="1" transform="matrix(1,0,0,1,-261.5,-149.5)"><path stroke-linecap="butt" stroke-linejoin="miter" fill-opacity="0" stroke-miterlimit="4" stroke="rgb(43,130,72)" stroke-opacity="1" stroke-width="8" d=" M0,-25.5 C14.073450088500977,-25.5 25.5,-14.073450088500977 25.5,0 C25.5,14.073450088500977 14.073450088500977,25.5 0,25.5 C-14.073450088500977,25.5 -25.5,14.073450088500977 -25.5,0 C-25.5,-14.073450088500977 -14.073450088500977,-25.5 0,-25.5z"/></g></g><g transform="matrix(0.4168716073036194,-0.38873904943466187,0.38873904943466187,0.4168716073036194,475.875,344.8800048828125)" opacity="1" style="display: block;"><g opacity="1" transform="matrix(1,0,0,1,39.5,-7)"><path stroke-linecap="round" stroke-linejoin="miter" fill-opacity="0" stroke-miterlimit="4" stroke="rgb(43,130,72)" stroke-opacity="1" stroke-width="4" d=" M320.3479919433594,-16.910999298095703 C320.447998046875,-16.969999313354492 320.5,-17 320.5,-17"/></g></g><g transform="matrix(-0.46691665053367615,0.32693856954574585,-0.32693856954574585,-0.46691665053367615,406.375,359)" opacity="1" style="display: block;"><g opacity="1" transform="matrix(1,0,0,1,39.5,-7)"><path stroke-linecap="round" stroke-linejoin="miter" fill-opacity="0" stroke-miterlimit="4" stroke="rgb(43,130,72)" stroke-opacity="1" stroke-width="4" d=" M317.86199951171875,-15.458999633789062 C319.531005859375,-16.43400001525879 320.5,-17 320.5,-17"/></g></g></g><g transform="matrix(1,0,0,1,425,425)" opacity="1" style="display: block;"><g opacity="1" transform="matrix(1,0,0,1,3,-21)"><path stroke-linecap="round" stroke-linejoin="miter" fill-opacity="0" stroke-miterlimit="4" stroke="rgb(43,130,72)" stroke-opacity="1" stroke-width="2" d=" M-110.23799896240234,-212.0749969482422 C-186.72500610351562,-172.1999969482422 -239,-92.15499877929688 -239,0 C-239,131.9040985107422 -131.9040985107422,239 0,239 C94.55899810791016,239 176.36900329589844,183.96200561523438 215.11399841308594,104.2020034790039"/></g></g><g transform="matrix(0.8923100233078003,0,0,0.8923100233078003,425,425)" opacity="1" style="display: block;"><g opacity="1" transform="matrix(1,0,0,1,3,-21)"><path stroke-linecap="round" stroke-linejoin="miter" fill-opacity="0" stroke-miterlimit="4" stroke="rgb(70,123,88)" stroke-opacity="1" stroke-width="2" d=" M0,-239 C-131.9040985107422,-239 -239,-131.9040985107422 -239,0 C-239,131.9040985107422 -131.9040985107422,239 0,239 C68.59600067138672,239 130.48300170898438,210.03599548339844 174.08700561523438,163.6820068359375"/></g></g><g clip-path="url(#__lottie_element_25331)" transform="matrix(1,0,0,1,150,150)" opacity="1" style="display: none;"><g transform="matrix(1,0,0,1,275,275)" opacity="1" style="display: block;"><g opacity="1" transform="matrix(1,0,0,1,0,0)"><path stroke-linecap="butt" stroke-linejoin="miter" fill-opacity="0" stroke-miterlimit="4" stroke="rgb(95,231,145)" stroke-opacity="1" stroke-width="2" d="M0 0"/></g><g opacity="1" transform="matrix(1,0,0,1,0,0)"><path stroke-linecap="butt" stroke-linejoin="miter" fill-opacity="0" stroke-miterlimit="4" stroke="rgb(95,231,145)" stroke-opacity="1" stroke-width="2" d="M0 0"/></g><g opacity="1" transform="matrix(0,-1,1,0,0,0)"><path stroke-linecap="butt" stroke-linejoin="miter" fill-opacity="0" stroke-miterlimit="4" stroke="rgb(95,231,145)" stroke-opacity="1" stroke-width="2" d="M0 0"/></g><g opacity="1" transform="matrix(0,-1,1,0,0,0)"><path stroke-linecap="butt" stroke-linejoin="miter" fill-opacity="0" stroke-miterlimit="4" stroke="rgb(95,231,145)" stroke-opacity="1" stroke-width="2" d="M0 0"/></g><g opacity="1" transform="matrix(-0.7071067690849304,-0.7071067690849304,0.7071067690849304,-0.7071067690849304,0,0)"><path stroke-linecap="butt" stroke-linejoin="miter" fill-opacity="0" stroke-miterlimit="4" stroke="rgb(95,231,145)" stroke-opacity="1" stroke-width="2" d="M0 0"/></g><g opacity="1" transform="matrix(-0.7071067690849304,-0.7071067690849304,0.7071067690849304,-0.7071067690849304,0,0)"><path stroke-linecap="butt" stroke-linejoin="miter" fill-opacity="0" stroke-miterlimit="4" stroke="rgb(95,231,145)" stroke-opacity="1" stroke-width="2" d="M0 0"/></g><g opacity="1" transform="matrix(-0.7313537001609802,0.6819983720779419,-0.6819983720779419,-0.7313537001609802,0,0)"><path stroke-linecap="butt" stroke-linejoin="miter" fill-opacity="0" stroke-miterlimit="4" stroke="rgb(95,231,145)" stroke-opacity="1" stroke-width="2" d="M0 0"/></g><g opacity="1" transform="matrix(-0.7313537001609802,0.6819983720779419,-0.6819983720779419,-0.7313537001609802,0,0)"><path stroke-linecap="butt" stroke-linejoin="miter" fill-opacity="0" stroke-miterlimit="4" stroke="rgb(95,231,145)" stroke-opacity="1" stroke-width="2" d="M0 0"/></g></g></g><g clip-path="url(#__lottie_element_25405)" transform="matrix(1.4945499897003174,0,0,1.4945499897003174,13.998748779296875,13.998748779296875)" opacity="1" style="display: none;"><g transform="matrix(1,0,0,1,275,275)" opacity="1" style="display: block;"><g opacity="1" transform="matrix(1,0,0,1,0,0)"><path stroke-linecap="butt" stroke-linejoin="miter" fill-opacity="0" stroke-miterlimit="4" stroke="rgb(95,231,145)" stroke-opacity="1" stroke-width="2" d="M0 0"/></g><g opacity="1" transform="matrix(1,0,0,1,0,0)"><path stroke-linecap="butt" stroke-linejoin="miter" fill-opacity="0" stroke-miterlimit="4" stroke="rgb(95,231,145)" stroke-opacity="1" stroke-width="2" d="M0 0"/></g><g opacity="1" transform="matrix(0,-1,1,0,0,0)"><path stroke-linecap="butt" stroke-linejoin="miter" fill-opacity="0" stroke-miterlimit="4" stroke="rgb(95,231,145)" stroke-opacity="1" stroke-width="2" d="M0 0"/></g><g opacity="1" transform="matrix(0,-1,1,0,0,0)"><path stroke-linecap="butt" stroke-linejoin="miter" fill-opacity="0" stroke-miterlimit="4" stroke="rgb(95,231,145)" stroke-opacity="1" stroke-width="2" d="M0 0"/></g><g opacity="1" transform="matrix(-0.7071067690849304,-0.7071067690849304,0.7071067690849304,-0.7071067690849304,0,0)"><path stroke-linecap="butt" stroke-linejoin="miter" fill-opacity="0" stroke-miterlimit="4" stroke="rgb(95,231,145)" stroke-opacity="1" stroke-width="2" d="M0 0"/></g><g opacity="1" transform="matrix(-0.7071067690849304,-0.7071067690849304,0.7071067690849304,-0.7071067690849304,0,0)"><path stroke-linecap="butt" stroke-linejoin="miter" fill-opacity="0" stroke-miterlimit="4" stroke="rgb(95,231,145)" stroke-opacity="1" stroke-width="2" d="M0 0"/></g><g opacity="1" transform="matrix(-0.7313537001609802,0.6819983720779419,-0.6819983720779419,-0.7313537001609802,0,0)"><path stroke-linecap="butt" stroke-linejoin="miter" fill-opacity="0" stroke-miterlimit="4" stroke="rgb(95,231,145)" stroke-opacity="1" stroke-width="2" d="M0 0"/></g><g opacity="1" transform="matrix(-0.7313537001609802,0.6819983720779419,-0.6819983720779419,-0.7313537001609802,0,0)"><path stroke-linecap="butt" stroke-linejoin="miter" fill-opacity="0" stroke-miterlimit="4" stroke="rgb(95,231,145)" stroke-opacity="1" stroke-width="2" d="M0 0"/></g></g></g><g transform="matrix(0.39371246099472046,0,0,0.39371246099472046,425,425)" opacity="1" style="display: block;"><g opacity="1" transform="matrix(1,0,0,1,4,-16)"><path fill="rgb(70,123,88)" fill-opacity="1" d=" M0,-172 C94.92680358886719,-172 172,-94.92680358886719 172,0 C172,94.92680358886719 94.92680358886719,172 0,172 C-94.92680358886719,172 -172,94.92680358886719 -172,0 C-172,-94.92680358886719 -94.92680358886719,-172 0,-172z"/></g></g><g transform="matrix(0.4908498525619507,0,0,0.4908498525619507,425,428)" opacity="1" style="display: block;"><g opacity="1" transform="matrix(1,0,0,1,4,-20)"><path fill="rgb(255,255,255)" fill-opacity="1" d=" M0,-172 C94.92680358886719,-172 172,-94.92680358886719 172,0 C172,94.92680358886719 94.92680358886719,172 0,172 C-94.92680358886719,172 -172,94.92680358886719 -172,0 C-172,-94.92680358886719 -94.92680358886719,-172 0,-172z"/></g></g><g transform="matrix(0.8235917091369629,0,0,0.8235917091369629,425,426)" opacity="1" style="display: block;"><g opacity="1" transform="matrix(1,0,0,1,4,-20)"><path fill="rgb(43,130,72)" fill-opacity="1" d=" M0,-172 C94.92680358886719,-172 172,-94.92680358886719 172,0 C172,94.92680358886719 94.92680358886719,172 0,172 C-94.92680358886719,172 -172,94.92680358886719 -172,0 C-172,-94.92680358886719 -94.92680358886719,-172 0,-172z"/></g></g><g transform="matrix(0.980795681476593,0,0,0.980795681476593,425,425)" opacity="1" style="display: block;"><g opacity="1" transform="matrix(1,0,0,1,4,-20)"><path fill="rgb(134,253,179)" fill-opacity="1" d=" M0,-172 C94.92680358886719,-172 172,-94.92680358886719 172,0 C172,94.92680358886719 94.92680358886719,172 0,172 C-94.92680358886719,172 -172,94.92680358886719 -172,0 C-172,-94.92680358886719 -94.92680358886719,-172 0,-172z"/></g></g><g transform="matrix(1.0624772310256958,0,0,1.0624772310256958,424,427)" opacity="1" style="display: block;"><g opacity="1" transform="matrix(1,0,0,1,4,-20)"><path fill="rgb(95,231,145)" fill-opacity="1" d=" M0,-172 C94.92680358886719,-172 172,-94.92680358886719 172,0 C172,94.92680358886719 94.92680358886719,172 0,172 C-94.92680358886719,172 -172,94.92680358886719 -172,0 C-172,-94.92680358886719 -94.92680358886719,-172 0,-172z"/></g></g><g transform="matrix(0.4001341164112091,0,0,0.4001341164112091,438,175)" opacity="1" style="display: none;"><g opacity="1" transform="matrix(1,0,0,1,4,-16)"/><g opacity="1" transform="matrix(1,0,0,1,4,-16)"><path fill="rgb(43,130,72)" fill-opacity="1" d=" M4,-16 M0,-172 C94.92680358886719,-172 172,-94.92680358886719 172,0 C172,94.92680358886719 94.92680358886719,172 0,172 C-94.92680358886719,172 -172,94.92680358886719 -172,0 C-172,-94.92680358886719 -94.92680358886719,-172 0,-172z"/></g></g><g transform="matrix(0.029999999329447746,0,0,0.029999999329447746,269.8580322265625,248.31875610351562)" opacity="1" style="display: block;"><g opacity="1" transform="matrix(1,0,0,1,4,-16)"/><g opacity="1" transform="matrix(1,0,0,1,4,-16)"><path fill="rgb(17,232,89)" fill-opacity="1" d=" M4,-16 M0,-172 C94.92680358886719,-172 172,-94.92680358886719 172,0 C172,94.92680358886719 94.92680358886719,172 0,172 C-94.92680358886719,172 -172,94.92680358886719 -172,0 C-172,-94.92680358886719 -94.92680358886719,-172 0,-172z"/></g></g><g transform="matrix(0.07000000029802322,0,0,0.07000000029802322,207.0076904296875,407.414794921875)" opacity="1" style="display: block;"><g opacity="1" transform="matrix(1,0,0,1,4,-16)"/><g opacity="1" transform="matrix(1,0,0,1,4,-16)"><path fill="rgb(31,187,83)" fill-opacity="1" d=" M4,-16 M0,-172 C94.92680358886719,-172 172,-94.92680358886719 172,0 C172,94.92680358886719 94.92680358886719,172 0,172 C-94.92680358886719,172 -172,94.92680358886719 -172,0 C-172,-94.92680358886719 -94.92680358886719,-172 0,-172z"/></g></g><g transform="matrix(0.18000000715255737,0,0,0.18000000715255737,357.66839599609375,622.6489868164062)" opacity="1" style="display: block;"><g opacity="1" transform="matrix(1,0,0,1,4,-16)"/><g opacity="1" transform="matrix(1,0,0,1,4,-16)"><path fill="rgb(60,250,123)" fill-opacity="1" d=" M4,-16 M0,-172 C94.92680358886719,-172 172,-94.92680358886719 172,0 C172,94.92680358886719 94.92680358886719,172 0,172 C-94.92680358886719,172 -172,94.92680358886719 -172,0 C-172,-94.92680358886719 -94.92680358886719,-172 0,-172z"/></g></g><g transform="matrix(0.4000000059604645,0,0,0.4000000059604645,547.5504150390625,609.4187622070312)" opacity="1" style="display: block;"><g opacity="1" transform="matrix(1,0,0,1,4,-16)"/><g opacity="1" transform="matrix(1,0,0,1,4,-16)"><path fill="rgb(43,130,72)" fill-opacity="1" d=" M4,-16 M0,-172 C94.92680358886719,-172 172,-94.92680358886719 172,0 C172,94.92680358886719 94.92680358886719,172 0,172 C-94.92680358886719,172 -172,94.92680358886719 -172,0 C-172,-94.92680358886719 -94.92680358886719,-172 0,-172z"/></g></g><g clip-path="url(#__lottie_element_25427)" transform="matrix(0.5345500111579895,0,0,0.5345500111579895,292.9987487792969,23.998748779296875)" opacity="1" style="display: none;"><g transform="matrix(1,0,0,1,275,275)" opacity="1" style="display: block;"><g opacity="1" transform="matrix(1,0,0,1,0,0)"><path stroke-linecap="butt" stroke-linejoin="miter" fill-opacity="0" stroke-miterlimit="4" stroke="rgb(95,231,145)" stroke-opacity="1" stroke-width="2" d="M0 0"/></g><g opacity="1" transform="matrix(1,0,0,1,0,0)"><path stroke-linecap="butt" stroke-linejoin="miter" fill-opacity="0" stroke-miterlimit="4" stroke="rgb(95,231,145)" stroke-opacity="1" stroke-width="2" d="M0 0"/></g><g opacity="1" transform="matrix(0,-1,1,0,0,0)"><path stroke-linecap="butt" stroke-linejoin="miter" fill-opacity="0" stroke-miterlimit="4" stroke="rgb(95,231,145)" stroke-opacity="1" stroke-width="2" d="M0 0"/></g><g opacity="1" transform="matrix(0,-1,1,0,0,0)"><path stroke-linecap="butt" stroke-linejoin="miter" fill-opacity="0" stroke-miterlimit="4" stroke="rgb(95,231,145)" stroke-opacity="1" stroke-width="2" d="M0 0"/></g><g opacity="1" transform="matrix(-0.7071067690849304,-0.7071067690849304,0.7071067690849304,-0.7071067690849304,0,0)"><path stroke-linecap="butt" stroke-linejoin="miter" fill-opacity="0" stroke-miterlimit="4" stroke="rgb(95,231,145)" stroke-opacity="1" stroke-width="2" d="M0 0"/></g><g opacity="1" transform="matrix(-0.7071067690849304,-0.7071067690849304,0.7071067690849304,-0.7071067690849304,0,0)"><path stroke-linecap="butt" stroke-linejoin="miter" fill-opacity="0" stroke-miterlimit="4" stroke="rgb(95,231,145)" stroke-opacity="1" stroke-width="2" d="M0 0"/></g><g opacity="1" transform="matrix(-0.7313537001609802,0.6819983720779419,-0.6819983720779419,-0.7313537001609802,0,0)"><path stroke-linecap="butt" stroke-linejoin="miter" fill-opacity="0" stroke-miterlimit="4" stroke="rgb(95,231,145)" stroke-opacity="1" stroke-width="2" d="M0 0"/></g><g opacity="1" transform="matrix(-0.7313537001609802,0.6819983720779419,-0.6819983720779419,-0.7313537001609802,0,0)"><path stroke-linecap="butt" stroke-linejoin="miter" fill-opacity="0" stroke-miterlimit="4" stroke="rgb(95,231,145)" stroke-opacity="1" stroke-width="2" d="M0 0"/></g></g></g><g clip-path="url(#__lottie_element_25431)" transform="matrix(0.5208495259284973,-0.12024758756160736,0.12024758756160736,0.5208495259284973,263.69830322265625,60.83446502685547)" opacity="1" style="display: none;"><g transform="matrix(1,0,0,1,275,275)" opacity="1" style="display: block;"><g opacity="1" transform="matrix(1,0,0,1,0,0)"><path stroke-linecap="butt" stroke-linejoin="miter" fill-opacity="0" stroke-miterlimit="4" stroke="rgb(95,231,145)" stroke-opacity="1" stroke-width="2" d="M0 0"/></g><g opacity="1" transform="matrix(1,0,0,1,0,0)"><path stroke-linecap="butt" stroke-linejoin="miter" fill-opacity="0" stroke-miterlimit="4" stroke="rgb(95,231,145)" stroke-opacity="1" stroke-width="2" d="M0 0"/></g><g opacity="1" transform="matrix(0,-1,1,0,0,0)"><path stroke-linecap="butt" stroke-linejoin="miter" fill-opacity="0" stroke-miterlimit="4" stroke="rgb(95,231,145)" stroke-opacity="1" stroke-width="2" d="M0 0"/></g><g opacity="1" transform="matrix(0,-1,1,0,0,0)"><path stroke-linecap="butt" stroke-linejoin="miter" fill-opacity="0" stroke-miterlimit="4" stroke="rgb(95,231,145)" stroke-opacity="1" stroke-width="2" d="M0 0"/></g><g opacity="1" transform="matrix(-0.7071067690849304,-0.7071067690849304,0.7071067690849304,-0.7071067690849304,0,0)"><path stroke-linecap="butt" stroke-linejoin="miter" fill-opacity="0" stroke-miterlimit="4" stroke="rgb(95,231,145)" stroke-opacity="1" stroke-width="2" d="M0 0"/></g><g opacity="1" transform="matrix(-0.7071067690849304,-0.7071067690849304,0.7071067690849304,-0.7071067690849304,0,0)"><path stroke-linecap="butt" stroke-linejoin="miter" fill-opacity="0" stroke-miterlimit="4" stroke="rgb(95,231,145)" stroke-opacity="1" stroke-width="2" d="M0 0"/></g><g opacity="1" transform="matrix(-0.7313537001609802,0.6819983720779419,-0.6819983720779419,-0.7313537001609802,0,0)"><path stroke-linecap="butt" stroke-linejoin="miter" fill-opacity="0" stroke-miterlimit="4" stroke="rgb(95,231,145)" stroke-opacity="1" stroke-width="2" d="M0 0"/></g><g opacity="1" transform="matrix(-0.7313537001609802,0.6819983720779419,-0.6819983720779419,-0.7313537001609802,0,0)"><path stroke-linecap="butt" stroke-linejoin="miter" fill-opacity="0" stroke-miterlimit="4" stroke="rgb(95,231,145)" stroke-opacity="1" stroke-width="2" d="M0 0"/></g></g></g><g clip-path="url(#__lottie_element_25435)" transform="matrix(0.47197964787483215,-0.2509560286998749,0.2509560286998749,0.47197964787483215,241.19268798828125,110.218505859375)" opacity="1" style="display: none;"><g transform="matrix(1,0,0,1,275,275)" opacity="1" style="display: block;"><g opacity="1" transform="matrix(1,0,0,1,0,0)"><path stroke-linecap="butt" stroke-linejoin="miter" fill-opacity="0" stroke-miterlimit="4" stroke="rgb(95,231,145)" stroke-opacity="1" stroke-width="2" d="M0 0"/></g><g opacity="1" transform="matrix(1,0,0,1,0,0)"><path stroke-linecap="butt" stroke-linejoin="miter" fill-opacity="0" stroke-miterlimit="4" stroke="rgb(95,231,145)" stroke-opacity="1" stroke-width="2" d="M0 0"/></g><g opacity="1" transform="matrix(0,-1,1,0,0,0)"><path stroke-linecap="butt" stroke-linejoin="miter" fill-opacity="0" stroke-miterlimit="4" stroke="rgb(95,231,145)" stroke-opacity="1" stroke-width="2" d="M0 0"/></g><g opacity="1" transform="matrix(0,-1,1,0,0,0)"><path stroke-linecap="butt" stroke-linejoin="miter" fill-opacity="0" stroke-miterlimit="4" stroke="rgb(95,231,145)" stroke-opacity="1" stroke-width="2" d="M0 0"/></g><g opacity="1" transform="matrix(-0.7071067690849304,-0.7071067690849304,0.7071067690849304,-0.7071067690849304,0,0)"><path stroke-linecap="butt" stroke-linejoin="miter" fill-opacity="0" stroke-miterlimit="4" stroke="rgb(95,231,145)" stroke-opacity="1" stroke-width="2" d="M0 0"/></g><g opacity="1" transform="matrix(-0.7071067690849304,-0.7071067690849304,0.7071067690849304,-0.7071067690849304,0,0)"><path stroke-linecap="butt" stroke-linejoin="miter" fill-opacity="0" stroke-miterlimit="4" stroke="rgb(95,231,145)" stroke-opacity="1" stroke-width="2" d="M0 0"/></g><g opacity="1" transform="matrix(-0.7313537001609802,0.6819983720779419,-0.6819983720779419,-0.7313537001609802,0,0)"><path stroke-linecap="butt" stroke-linejoin="miter" fill-opacity="0" stroke-miterlimit="4" stroke="rgb(95,231,145)" stroke-opacity="1" stroke-width="2" d="M0 0"/></g><g opacity="1" transform="matrix(-0.7313537001609802,0.6819983720779419,-0.6819983720779419,-0.7313537001609802,0,0)"><path stroke-linecap="butt" stroke-linejoin="miter" fill-opacity="0" stroke-miterlimit="4" stroke="rgb(95,231,145)" stroke-opacity="1" stroke-width="2" d="M0 0"/></g></g></g></g></svg>